<svg width="224" height="68" viewBox="0 0 224 68" fill="none" xmlns="http://www.w3.org/2000/svg">
<path d="M13.3807 58.6605C11.3068 58.6605 9.43892 58.2912 7.77699 57.5526C6.12926 56.7997 4.82244 55.6918 3.85653 54.2287C2.90483 52.7656 2.42898 50.9616 2.42898 48.8168C2.42898 46.9702 2.76989 45.4432 3.4517 44.2358C4.13352 43.0284 5.06392 42.0625 6.2429 41.3381C7.42188 40.6136 8.75 40.0668 10.2273 39.6974C11.7188 39.3139 13.2599 39.0369 14.8509 38.8665C16.7685 38.6676 18.3239 38.4901 19.517 38.3338C20.7102 38.1634 21.5767 37.9077 22.1165 37.5668C22.6705 37.2116 22.9474 36.6648 22.9474 35.9261V35.7983C22.9474 34.1932 22.4716 32.9503 21.5199 32.0696C20.5682 31.1889 19.1974 30.7486 17.4077 30.7486C15.5185 30.7486 14.0199 31.1605 12.9119 31.9844C11.8182 32.8082 11.0795 33.7812 10.696 34.9034L3.49432 33.8807C4.0625 31.892 5 30.2301 6.30682 28.8949C7.61364 27.5455 9.21165 26.5369 11.1009 25.8693C12.9901 25.1875 15.0781 24.8466 17.3651 24.8466C18.9418 24.8466 20.5114 25.0313 22.0739 25.4006C23.6364 25.7699 25.0639 26.3807 26.3565 27.233C27.6491 28.071 28.6861 29.2145 29.4673 30.6634C30.2628 32.1122 30.6605 33.9233 30.6605 36.0966V58H23.2457V53.5043H22.9901C22.5213 54.4134 21.8608 55.2656 21.0085 56.0611C20.1705 56.8423 19.1122 57.4744 17.8338 57.9574C16.5696 58.4261 15.0852 58.6605 13.3807 58.6605ZM15.3835 52.9929C16.9318 52.9929 18.2741 52.6875 19.4105 52.0767C20.5469 51.4517 21.4205 50.6278 22.0312 49.6051C22.6562 48.5824 22.9688 47.4673 22.9688 46.2599V42.4034C22.7273 42.6023 22.3153 42.7869 21.733 42.9574C21.1648 43.1278 20.5256 43.277 19.8153 43.4048C19.1051 43.5327 18.402 43.6463 17.706 43.7457C17.0099 43.8452 16.4063 43.9304 15.8949 44.0014C14.7443 44.1577 13.7145 44.4134 12.8054 44.7685C11.8963 45.1236 11.179 45.6207 10.6534 46.2599C10.1278 46.8849 9.86506 47.6946 9.86506 48.6889C9.86506 50.1094 10.3835 51.1818 11.4205 51.9062C12.4574 52.6307 13.7784 52.9929 15.3835 52.9929ZM57.4756 44.2358V25.2727H65.1886V58H57.7099V52.1832H57.369C56.6304 54.0156 55.4159 55.5142 53.7256 56.679C52.0494 57.8437 49.9827 58.4261 47.5253 58.4261C45.3804 58.4261 43.4841 57.9503 41.8364 56.9986C40.2028 56.0327 38.9244 54.6335 38.0011 52.8011C37.0778 50.9545 36.6162 48.7244 36.6162 46.1108V25.2727H44.3293V44.9176C44.3293 46.9915 44.8974 48.6392 46.0338 49.8608C47.1702 51.0824 48.6616 51.6932 50.5082 51.6932C51.6446 51.6932 52.7455 51.4162 53.8108 50.8622C54.8761 50.3082 55.7497 49.4844 56.4315 48.3906C57.1276 47.2827 57.4756 45.8977 57.4756 44.2358ZM87.6624 25.2727V31.2386H68.8485V25.2727H87.6624ZM73.4934 17.4318H81.2065V48.1562C81.2065 49.1932 81.3627 49.9886 81.6752 50.5426C82.0019 51.0824 82.4281 51.4517 82.9536 51.6506C83.4792 51.8494 84.0616 51.9489 84.7008 51.9489C85.1837 51.9489 85.6241 51.9134 86.0218 51.8423C86.4337 51.7713 86.7462 51.7074 86.9593 51.6506L88.259 57.6804C87.8471 57.8224 87.2576 57.9787 86.4906 58.1491C85.7377 58.3196 84.8144 58.419 83.7207 58.4474C81.7889 58.5043 80.0488 58.2131 78.5005 57.5739C76.9522 56.9205 75.7235 55.9119 74.8144 54.5483C73.9195 53.1847 73.4792 51.4801 73.4934 49.4347V17.4318ZM106.237 58.6392C103.041 58.6392 100.271 57.9361 97.9274 56.5298C95.5837 55.1236 93.7655 53.1562 92.4729 50.6278C91.1945 48.0994 90.5553 45.1449 90.5553 41.7642C90.5553 38.3835 91.1945 35.4219 92.4729 32.8793C93.7655 30.3366 95.5837 28.3622 97.9274 26.956C100.271 25.5497 103.041 24.8466 106.237 24.8466C109.433 24.8466 112.203 25.5497 114.547 26.956C116.89 28.3622 118.702 30.3366 119.98 32.8793C121.273 35.4219 121.919 38.3835 121.919 41.7642C121.919 45.1449 121.273 48.0994 119.98 50.6278C118.702 53.1562 116.89 55.1236 114.547 56.5298C112.203 57.9361 109.433 58.6392 106.237 58.6392ZM106.28 52.4602C108.013 52.4602 109.462 51.9844 110.626 51.0327C111.791 50.0668 112.658 48.7741 113.226 47.1548C113.808 45.5355 114.099 43.7315 114.099 41.7429C114.099 39.7401 113.808 37.929 113.226 36.3097C112.658 34.6761 111.791 33.3764 110.626 32.4105C109.462 31.4446 108.013 30.9616 106.28 30.9616C104.504 30.9616 103.027 31.4446 101.848 32.4105C100.683 33.3764 99.8095 34.6761 99.2271 36.3097C98.6589 37.929 98.3749 39.7401 98.3749 41.7429C98.3749 43.7315 98.6589 45.5355 99.2271 47.1548C99.8095 48.7741 100.683 50.0668 101.848 51.0327C103.027 51.9844 104.504 52.4602 106.28 52.4602ZM143.008 25.2727V31.2386H124.194V25.2727H143.008ZM128.839 17.4318H136.552V48.1562C136.552 49.1932 136.708 49.9886 137.021 50.5426C137.347 51.0824 137.773 51.4517 138.299 51.6506C138.825 51.8494 139.407 51.9489 140.046 51.9489C140.529 51.9489 140.969 51.9134 141.367 51.8423C141.779 51.7713 142.092 51.7074 142.305 51.6506L143.604 57.6804C143.192 57.8224 142.603 57.9787 141.836 58.1491C141.083 58.3196 140.16 58.419 139.066 58.4474C137.134 58.5043 135.394 58.2131 133.846 57.5739C132.298 56.9205 131.069 55.9119 130.16 54.5483C129.265 53.1847 128.825 51.4801 128.839 49.4347V17.4318ZM157.076 58.6605C155.002 58.6605 153.134 58.2912 151.472 57.5526C149.825 56.7997 148.518 55.6918 147.552 54.2287C146.6 52.7656 146.124 50.9616 146.124 48.8168C146.124 46.9702 146.465 45.4432 147.147 44.2358C147.829 43.0284 148.759 42.0625 149.938 41.3381C151.117 40.6136 152.445 40.0668 153.923 39.6974C155.414 39.3139 156.955 39.0369 158.546 38.8665C160.464 38.6676 162.019 38.4901 163.212 38.3338C164.406 38.1634 165.272 37.9077 165.812 37.5668C166.366 37.2116 166.643 36.6648 166.643 35.9261V35.7983C166.643 34.1932 166.167 32.9503 165.215 32.0696C164.263 31.1889 162.893 30.7486 161.103 30.7486C159.214 30.7486 157.715 31.1605 156.607 31.9844C155.513 32.8082 154.775 33.7812 154.391 34.9034L147.19 33.8807C147.758 31.892 148.695 30.2301 150.002 28.8949C151.309 27.5455 152.907 26.5369 154.796 25.8693C156.685 25.1875 158.773 24.8466 161.06 24.8466C162.637 24.8466 164.207 25.0313 165.769 25.4006C167.332 25.7699 168.759 26.3807 170.052 27.233C171.344 28.071 172.381 29.2145 173.163 30.6634C173.958 32.1122 174.356 33.9233 174.356 36.0966V58H166.941V53.5043H166.685C166.217 54.4134 165.556 55.2656 164.704 56.0611C163.866 56.8423 162.808 57.4744 161.529 57.9574C160.265 58.4261 158.781 58.6605 157.076 58.6605ZM159.079 52.9929C160.627 52.9929 161.969 52.6875 163.106 52.0767C164.242 51.4517 165.116 50.6278 165.727 49.6051C166.352 48.5824 166.664 47.4673 166.664 46.2599V42.4034C166.423 42.6023 166.011 42.7869 165.428 42.9574C164.86 43.1278 164.221 43.277 163.511 43.4048C162.8 43.5327 162.097 43.6463 161.401 43.7457C160.705 43.8452 160.102 43.9304 159.59 44.0014C158.44 44.1577 157.41 44.4134 156.501 44.7685C155.592 45.1236 154.874 45.6207 154.349 46.2599C153.823 46.8849 153.56 47.6946 153.56 48.6889C153.56 50.1094 154.079 51.1818 155.116 51.9062C156.153 52.6307 157.474 52.9929 159.079 52.9929ZM180.652 58V14.3636H188.365V30.6847H188.685C189.083 29.8892 189.644 29.044 190.368 28.1491C191.093 27.2401 192.073 26.4659 193.309 25.8267C194.544 25.1733 196.121 24.8466 198.039 24.8466C200.567 24.8466 202.847 25.4929 204.878 26.7855C206.924 28.0639 208.543 29.9602 209.736 32.4744C210.944 34.9744 211.547 38.0426 211.547 41.679C211.547 45.2727 210.958 48.3267 209.779 50.8409C208.6 53.3551 206.995 55.2727 204.963 56.5938C202.932 57.9148 200.631 58.5753 198.06 58.5753C196.185 58.5753 194.63 58.2628 193.394 57.6378C192.158 57.0128 191.164 56.2599 190.411 55.3793C189.672 54.4844 189.097 53.6392 188.685 52.8438H188.238V58H180.652ZM188.216 41.6364C188.216 43.7528 188.515 45.6065 189.111 47.1974C189.722 48.7884 190.596 50.0312 191.732 50.9261C192.883 51.8068 194.275 52.2472 195.908 52.2472C197.613 52.2472 199.04 51.7926 200.191 50.8835C201.341 49.9602 202.208 48.7031 202.79 47.1122C203.387 45.5071 203.685 43.6818 203.685 41.6364C203.685 39.6051 203.394 37.8011 202.812 36.2244C202.229 34.6477 201.363 33.4119 200.212 32.517C199.062 31.6222 197.627 31.1747 195.908 31.1747C194.26 31.1747 192.861 31.608 191.711 32.4744C190.56 33.3409 189.687 34.5554 189.09 36.1179C188.508 37.6804 188.216 39.5199 188.216 41.6364Z" fill="black"/>
</svg>
